<?xml version="1.0" encoding="UTF-8"?>
<svg id="Layer_1" data-name="Layer 1" xmlns="http://www.w3.org/2000/svg" version="1.1" viewBox="0 0 946.1 226">
  <defs>
    <style>
      .cls-1 {
        fill: #618f3e;
      }

      .cls-1, .cls-2, .cls-3 {
        stroke-width: 0px;
      }

      .cls-2 {
        fill: #fff;
      }

      .cls-3 {
        fill: #043d55;
      }
    </style>
  </defs>
  <path class="cls-2" d="M204.7,54.1v117.9c0,19.9-16.1,36.1-36.1,36.1h-95.3c-19.9,0-36.1-16.1-36.1-36.1V54.1c0-19.9,16.1-36.1,36.1-36.1h95.3c19.9,0,36.1,16.1,36.1,36.1Z"/>
  <g>
    <g>
      <path class="cls-2" d="M259.9,28.4l26.7,75.3,26.4-75.3h28.1v103.7c.1,0-21.4,0-21.4,0v-28.3l2.1-49-27.9,77.4h-14.7l-28-77.2,2.1,48.9v28.3h-21.4V28.4c-.1,0,27.8,0,27.8,0h0Z"/>
      <path class="cls-2" d="M355.8,95.3v-2c0-7.7,1.5-14.7,4.5-20.7,3-6.1,7.3-10.8,12.7-14.1,5.5-3.3,11.8-4.9,18.8-5,10.6,0,18.8,3.3,24.9,9.9,6.1,6.6,9.1,16,9.1,28.3v8.4h-49.1c.6,5,2.7,9.1,6,12.1,3.3,3,7.6,4.6,12.7,4.6,7.9,0,14.1-2.9,18.6-8.7l10.2,11.3c-3.1,4.4-7.3,7.8-12.5,10.3-5.2,2.5-11.1,3.6-17.5,3.7-11.3,0-20.5-3.4-27.6-10.4-7.2-7-10.7-16.1-10.7-27.7h-.1ZM376.9,86.1h28.7v-1.7c0-4.6-1.4-8.1-3.7-10.6-2.4-2.5-5.8-3.7-10.2-3.7s-7.4,1.4-9.9,4.2c-2.6,2.8-4.2,6.7-4.9,11.9h.1Z"/>
      <path class="cls-2" d="M456.9,54.8l.5,9.2c4.2-7.1,9.8-10.6,17.2-10.6s4.4.3,6.4,1l-.2,19.8c-2.8-.4-5.2-.5-7.4-.5-7.8,0-12.9,2.7-15.3,7.9v50.5h-20.5V54.9h19.4-.1Z"/>
      <path class="cls-2" d="M490.6,34.8c0-3.1,1.1-5.7,3.1-7.6,2-2,4.9-3,8.4-3s6.3,1,8.4,3c2.1,2,3.1,4.5,3.1,7.6s-1.1,5.7-3.2,7.7c-2.1,2-4.9,3-8.3,3s-6.3-1-8.3-3c-2.1-2-3.2-4.6-3.2-7.7h0ZM491.8,131.9V54.8h20.6v77.1h-20.6Z"/>
      <path class="cls-2" d="M533.4,54.7v-18.9h20.5v18.9h13.3v15.1h-13.2v38.5c0,2.9.6,4.9,1.7,6.1,1.1,1.3,3.2,1.8,6.3,1.8s4.3-.2,6.1-.5v15.6c-4.1,1.3-8.2,1.8-12.4,1.8-14.4,0-21.8-7.3-22.1-21.8v-41.6h-11.3v-15.1h11.2-.1Z"/>
      <path class="cls-2" d="M612.6,76.5c0-9.9,1.7-18.8,5.2-26.4,3.5-7.6,8.6-13.5,15.1-17.5,6.5-4.1,14.1-6.1,22.8-6.1s21.6,3.2,29,9.6c7.3,6.4,11.5,15.4,12.7,27.1h-21.4c-.5-6.6-2.4-11.5-5.6-14.5-3.2-3-8.1-4.5-14.7-4.5s-12.5,2.6-16,7.7c-3.5,5.1-5.3,13-5.5,23.7v7.8c0,11.2,1.7,19.5,5.1,24.6,3.4,5.1,8.8,7.8,16,7.7,6.6,0,11.5-1.5,14.8-4.5,3.2-3,5.1-7.7,5.6-14h21.4c-.7,11.1-4.9,19.9-12.3,26.4-7.4,6.4-17.2,9.6-29.4,9.6s-23.7-4.5-31.4-13.4c-7.6-9-11.4-21.3-11.4-36.9v-6.3h0Z"/>
      <path class="cls-2" d="M716,91.2c6-4.4,14.8-6.6,26.2-6.6h9.5v-4.4c0-3.5-1-6.4-2.8-8.6-1.8-2.1-4.7-3.2-8.7-3.2s-6.2.9-8.1,2.5c-1.9,1.7-3,4-3,6.8h-20.6c0-4.5,1.4-8.6,4.2-12.4,2.8-3.8,6.6-6.7,11.7-9,5-2.2,10.7-3.2,17-3.3,9.5,0,17,2.4,22.7,7.2,5.6,4.8,8.3,11.4,8.4,20.1v33.5c0,7.3,1.1,12.8,3.1,16.6v1.2h-20.9c-1-1.8-1.6-4.2-2-6.8-5,5.6-11.4,8.3-19.5,8.3s-13.8-2.1-18.8-6.5c-5-4.4-7.5-9.8-7.5-16.6s3-14.4,9.1-18.8h0ZM730.2,114.8c1.8,1.7,4.3,2.5,7.4,2.5s5.9-.6,8.4-2c2.6-1.4,4.5-3.2,5.7-5.5v-13.3h-7.7c-10.3,0-15.8,3.5-16.5,10.7v1.2c0,2.6.9,4.7,2.7,6.3h0Z"/>
      <path class="cls-2" d="M807.6,54.4l.5,9.2c4.2-7.1,9.8-10.6,17.2-10.7,2.2,0,4.4.3,6.4,1l-.2,19.8c-2.8-.4-5.2-.5-7.4-.5-7.8,0-12.9,2.7-15.3,7.9v50.5h-20.5V54.4h19.4-.1Z"/>
      <path class="cls-2" d="M838.8,94.8v-2c0-7.7,1.5-14.7,4.5-20.7s7.3-10.8,12.7-14.1c5.5-3.3,11.8-4.9,18.8-5,10.6,0,18.8,3.3,24.9,9.9,6.1,6.6,9.1,16,9.1,28.3v8.4h-49.1c.6,5,2.7,9.1,6,12.1,3.3,3,7.6,4.6,12.7,4.6,7.9,0,14.1-2.9,18.6-8.7l10.2,11.3c-3.1,4.4-7.3,7.8-12.5,10.3-5.2,2.5-11.1,3.6-17.5,3.7-11.3,0-20.5-3.4-27.6-10.4-7.2-7-10.7-16.1-10.7-27.7h-.1ZM859.8,85.6h28.7v-1.7c0-4.6-1.4-8.1-3.7-10.6-2.4-2.5-5.8-3.7-10.2-3.7s-7.4,1.4-9.9,4.2c-2.6,2.8-4.2,6.7-4.9,11.9h.1Z"/>
    </g>
    <g>
      <path class="cls-2" d="M247.9,156h4.2l13,35.3h-5.3l-9.7-28.4-9.7,28.4h-5.3l13-35.3h-.1ZM240.9,178.9h18.6v4.7h-18.6v-4.7Z"/>
      <path class="cls-2" d="M276.6,190c-1.8-1.1-3.3-2.7-4.3-4.6-1.1-2-1.5-4.3-1.5-7v-9.7c0-2.7.5-4.9,1.5-7,1.1-2,2.5-3.5,4.3-4.6,1.8-1.1,4-1.6,6.4-1.6s3.9.4,5.6,1.3c1.7.9,3.1,2.1,4.3,3.6,1.2,1.6,1.9,3.4,2.4,5.6h-5c-.3-1.1-.9-2-1.5-3-.7-.9-1.6-1.5-2.6-2-1-.4-1.9-.7-3-.7s-2.7.3-3.7,1.1c-1.1.7-1.9,1.7-2.6,2.9-.6,1.3-.9,2.7-.9,4.4v9.7c0,1.6.3,3.1.9,4.4.6,1.3,1.4,2.2,2.6,2.9,1.1.6,2.4,1.1,3.7,1.1s2-.2,3-.6,1.8-1.1,2.6-1.9c.7-.9,1.3-1.9,1.5-3.1h5c-.4,2.1-1.2,4-2.4,5.6-1.2,1.6-2.6,2.8-4.3,3.6-1.7.9-3.5,1.3-5.6,1.3s-4.6-.5-6.4-1.6h0Z"/>
      <path class="cls-2" d="M313.2,156h4.2l13,35.3h-5.3l-9.7-28.4-9.7,28.4h-5.3l13-35.3h-.1ZM306.2,178.9h18.6v4.7h-18.6v-4.7Z"/>
      <path class="cls-2" d="M338.7,156h4.9v35.3h-4.9v-35.3ZM342,186.6h8c2.6,0,4.6-.6,6.1-2,1.4-1.4,2.1-3.2,2.1-5.7v-10.4c0-2.5-.7-4.4-2.1-5.7-1.4-1.3-3.4-2-6.1-2h-8v-4.7h7.8c2.8,0,5.2.5,7.3,1.5,2,1,3.5,2.5,4.6,4.3,1.1,1.9,1.6,4.2,1.6,6.8v10.1c0,2.7-.5,4.9-1.6,6.8-1.1,1.9-2.6,3.3-4.6,4.3-2,1-4.4,1.5-7.3,1.5h-7.8v-4.7h0Z"/>
      <path class="cls-2" d="M373.7,156h4.9v35.3h-4.9v-35.3ZM376.1,156h20.2v4.7h-20.2v-4.7ZM376.1,171.4h17.6v4.7h-17.6v-4.7ZM376.1,186.6h20.2v4.7h-20.2v-4.7Z"/>
      <path class="cls-2" d="M431.6,156h4.6v35.3h-4.8v-26.4l.2,1.6-8.7,20h-3.4l-8.7-19.5.2-2v26.4h-4.8v-35.3h4.6l10.4,23.3,10.4-23.3h0Z"/>
      <path class="cls-2" d="M459.4,176.9v14.3h-4.9v-14.3l-10.8-21h5.6l7.7,15.9,7.7-15.9h5.6l-10.8,21Z"/>
      <path class="cls-2" d="M498.3,177.2c-1.1,1-1.6,2.5-1.6,4.3s.5,3.2,1.7,4.2c1.2,1,2.8,1.5,4.9,1.5s3.7-.5,5.2-1.6c1.5-1.1,2.6-2.7,3.3-4.7s1.2-4.6,1.2-7.5h4.7c0,3.8-.6,7.2-1.8,9.8-1.2,2.7-3,4.8-5.2,6.2-2.4,1.4-5.1,2.1-8.3,2.1s-4.1-.4-5.7-1.2c-1.6-.7-2.8-1.9-3.5-3.4-.9-1.5-1.2-3.3-1.2-5.5s.7-5.1,2.4-7c1.6-1.7,3.8-2.8,6.7-3l2,4.2c-2,0-3.6.5-4.7,1.5h-.1ZM500.5,177.2c-1.2-1.2-2.1-2.5-2.9-3.6-.7-1.3-1.4-2.6-1.8-4-.4-1.4-.6-2.8-.6-4.2,0-3.1.9-5.5,2.5-7.2s4-2.6,7-2.6,5.3.9,7,2.5c1.6,1.6,2.5,4,2.5,7v.5h-4.9v-.5c0-1.4-.4-2.6-1.2-3.3-.7-.7-1.9-1.2-3.3-1.2s-2.6.4-3.3,1.3c-.7.9-1.2,2-1.2,3.6s.1,1.9.4,2.9c.3,1,.7,2,1.4,3,.6,1,1.3,1.9,2.1,2.8l16.1,17.1h-6.3l-13.5-14h.1Z"/>
      <path class="cls-2" d="M544.5,156h4.9v35.3h-4.9v-35.3ZM547,172.9h11.3c1.1,0,2-.2,2.8-.7.9-.5,1.4-1.2,1.9-2.1.5-1,.6-2,.6-3.2s-.2-2.2-.6-3.2c-.4-1-1.1-1.6-1.9-2.1-.9-.5-1.7-.7-2.8-.7h-11.3v-4.7h11.1c2.1,0,4,.4,5.6,1.4s2.9,2.1,3.7,3.8c.9,1.6,1.3,3.5,1.3,5.7s-.4,4.1-1.3,5.7c-.9,1.6-2.1,2.9-3.7,3.7-1.6.9-3.4,1.3-5.6,1.3h-11.1v-4.7h0Z"/>
      <path class="cls-2" d="M583.1,190.1c-1.8-1.1-3.3-2.6-4.3-4.5-1-1.9-1.5-4.4-1.5-7.1v-22.6h4.9v22.7c0,2.6.6,4.6,1.9,6,1.3,1.4,3.1,2.1,5.5,2.1s4.2-.7,5.6-2.1c1.4-1.4,1.9-3.4,1.9-6v-22.7h4.9v22.6c0,2.8-.5,5.1-1.5,7.1-1,1.9-2.4,3.4-4.3,4.5-1.9,1.1-4.1,1.5-6.7,1.5s-4.8-.5-6.7-1.5h.3Z"/>
      <path class="cls-2" d="M612.8,156h4.9v35.3h-4.9v-35.3ZM615.7,186.7h9.5c2.5,0,4.4-.4,5.5-1.4,1.1-1,1.7-2.2,1.7-4.1h0c0-1.3-.2-2.2-.6-3.2-.4-.9-1.1-1.5-1.9-1.9s-2-.6-3.4-.6h-10.8v-4.5h10.8c1.8,0,3.2-.4,4.2-1.3,1-.9,1.4-2.1,1.4-3.8s-.5-3.1-1.6-4c-1.1-.9-2.6-1.3-4.7-1.3h-10.1v-4.6h11c2.2,0,4.2.4,5.8,1.2,1.5.7,2.7,1.9,3.4,3.3.7,1.4,1.2,3.1,1.2,5.1s-.2,2.4-.7,3.4c-.4,1.1-1.2,1.9-2.1,2.7-1,.7-2.1,1.3-3.5,1.5,1.4.2,2.7.7,3.6,1.5,1.1.7,1.8,1.8,2.4,3,.5,1.2.9,2.5.9,3.8h0c0,2-.4,3.6-1.3,5.1-.9,1.5-2,2.6-3.6,3.4-1.6.7-3.4,1.2-5.5,1.2h-11.4v-4.6h.1Z"/>
      <path class="cls-2" d="M647.8,156h4.9v35.3h-4.9v-35.3ZM650.2,186.6h20.2v4.7h-20.2v-4.7Z"/>
      <path class="cls-2" d="M684.1,191.3h-4.9v-35.3h4.9v35.3Z"/>
      <path class="cls-2" d="M700.8,190c-1.8-1.1-3.3-2.7-4.3-4.6-1.1-2-1.5-4.3-1.5-7v-9.7c0-2.7.5-4.9,1.5-7,1.1-2,2.5-3.5,4.3-4.6,1.8-1.1,4-1.6,6.4-1.6s3.8.4,5.6,1.3c1.7.9,3.1,2.1,4.3,3.6,1.2,1.6,1.9,3.4,2.4,5.6h-5c-.3-1.1-.9-2-1.5-3-.7-.9-1.6-1.5-2.6-2-1-.4-1.9-.7-3-.7s-2.7.3-3.7,1.1c-1.1.7-1.9,1.7-2.6,2.9-.6,1.3-.9,2.7-.9,4.4v9.7c0,1.6.3,3.1.9,4.4.6,1.3,1.4,2.2,2.6,2.9,1.1.6,2.4,1.1,3.7,1.1s2-.2,3-.6c1-.4,1.8-1.1,2.6-1.9s1.3-1.9,1.5-3.1h5c-.4,2.1-1.2,4-2.4,5.6-1.2,1.6-2.6,2.8-4.3,3.6-1.7.9-3.5,1.3-5.6,1.3s-4.6-.5-6.4-1.6h0Z"/>
      <path class="cls-2" d="M737.5,156h4.2l13,35.3h-5.3l-9.7-28.4-9.7,28.4h-5.3l13-35.3h-.1ZM730.4,178.9h18.6v4.7h-18.6v-4.7Z"/>
      <path class="cls-2" d="M757.2,156h24.9v4.7h-24.9v-4.7ZM767.1,158.9h4.9v32.4h-4.9v-32.4h0Z"/>
      <path class="cls-2" d="M794.7,191.3h-4.9v-35.3h4.9v35.3Z"/>
      <path class="cls-2" d="M811.5,190c-1.9-1.1-3.3-2.6-4.4-4.6-1.1-1.9-1.5-4.3-1.5-6.8v-10.1c0-2.6.5-4.8,1.5-6.8,1.1-1.9,2.5-3.5,4.4-4.6,1.9-1.1,4.1-1.6,6.5-1.6s4.6.5,6.5,1.6c1.9,1.1,3.3,2.6,4.4,4.6,1.1,1.9,1.5,4.3,1.5,6.8v10.1c0,2.6-.5,4.8-1.5,6.8-1.1,1.9-2.5,3.5-4.4,4.6-1.9,1.1-4.1,1.6-6.5,1.6s-4.6-.5-6.5-1.6ZM821.9,185.8c1.1-.6,1.9-1.6,2.6-2.8.6-1.2,1-2.6,1-4.2v-10.4c0-1.6-.3-3-1-4.2-.6-1.2-1.5-2.1-2.6-2.8s-2.4-1-3.8-1-2.8.3-3.8,1c-1.1.6-1.9,1.6-2.6,2.8-.6,1.2-.9,2.6-.9,4.2v10.4c0,1.6.3,3,.9,4.2.6,1.2,1.5,2.1,2.6,2.8s2.4,1,3.8,1,2.8-.3,3.8-1Z"/>
      <path class="cls-2" d="M840.8,156h4.5l17.2,27.3-.5.6v-27.9h4.9v35.3h-4.5l-17.2-26.8.5-.6v27.5h-4.9v-35.3Z"/>
      <path class="cls-2" d="M884.3,191.1c-1.5-.3-3-.9-4.3-1.5-1.3-.6-2.6-1.5-3.7-2.5l3.1-3.7c1.4,1.2,2.8,2,4.5,2.7,1.6.5,3.4.9,5.2.9s4.5-.4,6-1.4c1.4-1,2.1-2.2,2.1-4.1h0c0-1.3-.3-2.2-1-3s-1.5-1.3-2.5-1.6c-1-.3-2.4-.6-4-1h-.5c-2.4-.4-4.3-1-5.8-1.5s-2.8-1.4-3.8-2.8c-1.1-1.4-1.6-3.3-1.6-5.8h0c0-2.2.5-4.1,1.5-5.7,1-1.5,2.4-2.7,4.3-3.5,1.9-.9,4.2-1.2,6.7-1.2s2.5.1,3.7.4c1.2.3,2.5.6,3.6,1.2,1.2.5,2.4,1.2,3.5,2l-2.8,4c-1.4-1-2.7-1.7-4.1-2.2-1.3-.5-2.7-.7-4.1-.7-2.5,0-4.3.5-5.7,1.5-1.3,1-2,2.4-2,4.1h0c0,1.3.3,2.1,1.1,2.9.7.7,1.5,1.2,2.6,1.5,1.1.3,2.5.6,4.3,1.1h.9c2.1.4,4,1,5.3,1.6s2.7,1.6,3.6,2.9,1.5,3.2,1.5,5.5h0c0,2.2-.5,4.1-1.5,5.6-1,1.5-2.5,2.7-4.4,3.5-1.9.9-4.3,1.2-7,1.2s-3.3-.2-4.8-.5l-.2.3Z"/>
    </g>
  </g>
  <g>
    <path class="cls-1" d="M62.1,146.6c3.9-2.4,8-4.4,12.1-6.3,1.6-.8,3.3-1.5,5-2.2,1.6-.7,3.4-1.4,5.1-2,1.7-.6,3.5-1.2,5.2-1.7,1.7-.5,3.5-1,5.3-1.6,2.7-.7,5.5-1.4,8.3-1.7,2.8-.3,5.7-.3,8.5.2,1.9.3,3.8.9,5.5,1.6.7.3,1.3.6,2,.9h0c.4.3.9.5,1.3.7.3.2.5.3.8.4,3.1-1.3,6-2.9,9.3-3.5,3.1-.6,6.4-.5,9.5-.2,11.4,1.5,30.5,9,40.2,15.4-3.7-.9-7.3-2.2-10.9-3.5-10.1-3.3-22.1-6.5-32.8-6-5.6.3-11.4,1.6-15.3,6.1-1.2-1.1-2.5-2.2-3.9-3.1-9.1-5.5-24.4-2.1-34,.3-4.2,1-8.5,2.2-12.7,3.5-2.9.9-5.7,1.9-8.6,2.6h0Z"/>
    <path class="cls-1" d="M187.3,155.2c0,0-.3,0-.3,0-2.4-.7-4.8-1.6-7.3-2.3-4.6-1.4-9.3-2.6-13.9-3.6-9.5-2.1-33.4-6.1-41.4-.9-2.2,1.4-2.8,3.3-3.3,5.6-.5-1.8-1-3.5-2.2-4.8-3.1-3.1-9.4-3.2-13.5-3.3-4.8,0-9.5.5-14.3,1.1-3,.4-6.1.9-9.2,1.4-3,.5-6.1,1.1-9.1,1.8-3,.7-6.1,1.5-9,2.2-2.9.8-5.8,1.7-8.7,2.7h-.2.2c4.2-2.9,8.8-5,13.5-7,3.1-1.3,6.4-2.3,9.6-3.4,9.3-2.9,21.8-6.2,31.5-4.4,3.3.6,7,2,9.5,4.3.8.8,1.5,1.6,2.1,2.5.5-.7,1-1.4,1.6-2.1,2.3-2.6,6.3-4.3,9.7-5,1.8-.3,3.7-.4,5.6-.5,4-.2,8.1.4,12,1.1,13.1,2.3,25.9,7.1,36.9,14.3,0,0,.2.2.3.2v.2Z"/>
    <path class="cls-3" d="M187.1,155.1c-2.5,20-19.6,35.5-40.3,35.5h-51.4c-20.7,0-37.8-15.5-40.3-35.5,2.9-1,5.8-1.8,8.7-2.7,2.9-.9,6-1.6,9-2.2,3-.7,6.1-1.3,9.1-1.8,3-.5,6.1-1,9.2-1.4,4.8-.6,9.5-1.1,14.3-1.1s10.5.2,13.5,3.3c1.4,1.4,1.8,3.1,2.2,4.8.5-2.4,1.1-4.2,3.3-5.6,8-5.2,31.9-1.2,41.4.9,4.7,1,9.3,2.2,13.9,3.6,2.4.8,4.8,1.7,7.3,2.3h0Z"/>
    <path class="cls-3" d="M187.5,151.3c-1.3-.4-2.7-.8-4.1-1.3-.8-.3-1.7-.6-2.5-.8-.2,0-.5-.2-.7-.2-3.4-1.1-7-2.1-10.5-2.9-1-.2-2-.5-3-.7-.4,0-.8-.2-1.3-.3-.3,0-.6-.1-.9-.2-1.1-.2-2.3-.5-3.7-.7-.5,0-1-.2-1.5-.3,0,0,0,0-.1,0-.4,0-.9-.2-1.3-.2-6.8-1.1-15.9-2.2-23.7-1.7-.3,0-.6,0-.8,0-.1,0-.2,0-.4,0-.3,0-.7,0-1,0-.5,0-1.1.1-1.6.2-1.1.2-2.1.4-3.1.6-.5.1-1,.3-1.5.4-.8.3-1.5.6-2.2.9,0,0,0,0,0,0-.4.2-.8.4-1.1.6-.4.3-.8.6-1.2.9-.3-.3-.6-.5-.9-.7-.2-.2-.5-.3-.8-.5-.2-.1-.3-.2-.5-.3h0c-.2-.1-.4-.2-.6-.3-.2-.1-.5-.2-.7-.3-.3-.1-.7-.3-1-.4-.5-.2-.9-.3-1.4-.4-3.1-.8-6.6-1-9.8-1s-2.4,0-3.5,0c-.8,0-1.5,0-2.2.1-.9,0-1.9.1-2.8.2-2.1.2-4.2.5-6.3.7h-.9c-2.1.4-4.2.7-6.2,1.1-.7.1-1.4.2-2.1.3-1.7.3-3.4.6-5.1.9-.2,0-.3,0-.5.1-.1,0-.2,0-.4,0,0,0,0,0,0,0,0,0,0,0,0,0s0,0,0,0t0,0s0,0,0,0c0,0,0,0,0,0h0c-.5,0-1,.2-1.5.3-.5.1-1.1.2-1.6.4-.8.2-1.7.4-2.5.6-1.9.4-3.8.9-5.7,1.4-.3,0-.7.2-1,.3,0,0-.1,0-.2,0-2.9.8-5.9,1.7-8.8,2.7l-2.9,1c0,.9.2,1.9.2,2.8,0,0,0,.2,0,.3h0c.2,1.6.5,3.1.8,4.6,4.6,19.9,22.5,34.4,43.3,34.4h51.4c20.9,0,38.8-14.6,43.3-34.5.3-1.3.6-2.7.7-4v-.6c.2-1.3.3-2.6.3-4h-3.7ZM146.8,186.7h-51.4c-17.4,0-32.3-12.3-35.9-29,0,0,.1,0,.2,0,1.7-.5,3.4-1.1,5.2-1.5.3,0,.6-.2,1-.3.4-.1.8-.2,1.3-.3.9-.3,1.9-.5,2.8-.7.5-.1,1-.2,1.5-.4.8-.2,1.6-.4,2.4-.6,2.2-.5,4.4-1,6.7-1.4.7-.1,1.5-.3,2.2-.4,2.6-.4,5.4-.9,8.1-1.2h.9c1.8-.4,3.6-.6,5.5-.8,1-.1,2-.2,3-.3,1.2,0,2.3-.1,3.5-.2.6,0,1.1,0,1.7,0h.2c2.1,0,7.2,0,9.8,1.5.4.2.7.4,1,.7s.3.3.4.5c.3.5.5,1.1.7,2,0,.1,0,.2,0,.3,0,0,0,.1,0,.2l1.5,6,1.3,5.2,1.2,4.9,3.3-15.5.2-.7c0-.2,0-.3,0-.4,0-.4.2-.7.2-.9h0c0-.3.2-.5.2-.7.3-.6.6-.9,1-1.2.3-.2.6-.3.9-.5,1.1-.5,2.6-.9,4.4-1.1.4,0,.9-.1,1.3-.2h0c.5,0,.9,0,1.4-.1,0,0,0,0,0,0,2-.1,4.2-.1,6.6,0,.8,0,1.5,0,2.3.1.4,0,.8,0,1.3,0,.8,0,1.7.1,2.5.2.7,0,1.5.2,2.2.2,1.6.2,3.3.4,4.9.6,1.3.2,2.6.4,3.9.6.8.2,1.7.3,2.5.5,1.4.3,2.8.5,4.1.8,0,0,.1,0,.2,0,4.5.9,8.9,2.1,13.2,3.4.1,0,.2,0,.4.1.7.2,1.5.5,2.2.8.6.2,1.2.4,1.8.6-3.6,16.7-18.5,28.8-35.9,28.8Z"/>
    <path class="cls-3" d="M75.1,145.7s0,0,0,0c0,0,0,0,0,0h0ZM75,145.7h0s0,0,0,0c0,0,0,0,0,0ZM190.3,67.5h0c-4-20.5-22-36-43.6-36h-51.4c-24.5,0-44.4,19.9-44.4,44.4v74c0,.8,0,1.5,0,2.3,0,.9.2,1.9.2,2.8,0,0,0,.2,0,.3h0c.2,1.6.5,3.1.8,4.6l3.7-1.2,1.6-.5c.7-.2,1.4-.4,2.1-.7,0,0,.1,0,.2,0,1.7-.6,3.4-1.1,5.2-1.5.3,0,.6-.2,1-.3.4-.1.8-.2,1.3-.3.9-.3,1.9-.5,2.8-.7.5-.1,1-.2,1.5-.4.8-.2,1.6-.4,2.4-.6,2.2-.5,4.4-1,6.7-1.4.7-.1,1.5-.3,2.2-.4,2.7-.4,5.4-.8,8.1-1.2h.9c1.8-.4,3.6-.6,5.5-.8,1-.1,2-.2,3-.3,1.2,0,2.3-.1,3.5-.2.6,0,1.1,0,1.7,0h.3c2.6,0,7.2.2,9.7,1.5.4.2.7.4,1,.7s.3.3.4.5c.2.5.5,1.2.7,2,0,.1,0,.2,0,.3l1.9,6.5,1.2,4.1h0s1.2,4.3,1.2,4.3l3.1-14.1.2-.7c0-.2,0-.3,0-.4,0-.4.2-.7.2-.9h0c0-.3.2-.5.2-.7.3-.6.6-.9,1-1.2.3-.2.6-.3.9-.5,1.1-.5,2.6-.9,4.4-1.1.4,0,.9-.1,1.3-.2h0c.5,0,.9,0,1.4-.1,0,0,0,0,0,0,2-.1,4.2-.1,6.6,0,.8,0,1.5,0,2.3.1.4,0,.8,0,1.3,0,.8,0,1.7.1,2.5.2.7,0,1.5.2,2.2.2,1.6.2,3.3.4,4.9.6,1.3.2,2.6.4,3.9.6.8.2,1.7.3,2.5.5,1.4.3,2.8.5,4.1.8,0,0,.1,0,.2,0,4.5,1,8.9,2.1,13.2,3.4.1,0,.2,0,.4.1,1.1.3,2.3.7,3.4,1.1,1.3.4,2.5.9,3.8,1.2h.5c0,.1,3.7,1.1,3.7,1.1.3-1.3.6-2.7.7-4v-.6c.2-1.3.3-2.6.3-4,0-.4,0-.9,0-1.3v-74l-.9-8.4ZM58.6,76c0-20.2,16.5-36.7,36.7-36.7h51.4c20.2,0,36.7,16.5,36.7,36.7v9.3h0c0,0,0,64.7,0,64.7-.9-.3-1.8-.6-2.6-.8-.2,0-.4-.1-.7-.2-3.3-1-6.8-1.9-10.2-2.7,0,0,0,0,0,0-1.1-.3-2.2-.5-3.3-.8-.4,0-.8-.2-1.3-.3-.3,0-.6-.1-.9-.2-1.1-.2-2.3-.5-3.7-.7-.5,0-1-.2-1.5-.3,0,0,0,0-.1,0-.4,0-.9-.2-1.3-.2-5.7-1-12.9-1.9-19.5-1.9s-2.8,0-4.2.2c-.3,0-.6,0-.8,0-.1,0-.2,0-.4,0-.3,0-.7,0-1,0-.5,0-1.1.1-1.6.2-1.1.2-2.1.4-3.1.6-.5.1-1,.3-1.5.4-.8.3-1.5.6-2.2.9,0,0,0,0,0,0-.4.2-.8.4-1.1.6-.4.3-.8.6-1.2.9-.3-.3-.6-.5-.9-.7-.2-.2-.5-.3-.8-.5-.1,0-.2-.1-.4-.2,0,0,0,0,0,0h0c-.2-.2-.5-.3-.7-.4-.2-.1-.5-.2-.7-.3-.3-.1-.7-.3-1-.4-.5-.2-.9-.3-1.4-.4-3.3-.8-6.8-.9-9.6-1h-.3c-1.2,0-2.4,0-3.5,0-.8,0-1.5,0-2.2.1-.9,0-1.9.1-2.8.2-2.1.2-4.2.5-6.3.7h-.9c-2.1.4-4.2.7-6.2,1.1-.7.1-1.4.2-2.1.3-1.7.3-3.4.6-5.1.9-.2,0-.3,0-.5.1-.1,0-.2,0-.4,0h0s0,0,0,0c0,0,0,0,0,0s0,0,0,0t0,0s0,0,0,0c0,0,0,0,0,0-.5,0-1,.2-1.5.3-.5.1-1.1.2-1.6.4-.8.2-1.7.4-2.5.6-2,.5-4,1-5.7,1.4-.3,0-.7.2-1,.3,0,0-.1,0-.2,0-1.4.4-2.7.8-4.1,1.2v-73.9ZM75.1,145.7s0,0,0,0c0,0,0,0,0,0h0ZM75.1,145.7s0,0,0,0c0,0,0,0,0,0h0Z"/>
    <path class="cls-3" d="M153.8,92.4c.3,5.8.3,11.3-2.2,16.6-2.6,5.7-6.4,10.3-12.1,13.1-7.3,3.5-15.1,2.5-21.2-2.9-5.4-4.8-8.2-11-8.6-18.2,0-.7.2-1.3.7-1.8,4-3.5,8-7.2,11.8-10.8.3-.3.6-.5,1-.9-.5,2.6-.3,4.8.4,7.1,2.3,6.9,9.3,10.6,16.3,8.5,5.5-1.6,9.9-4.9,13-9.8.2-.3.3-.5.6-1v.2Z"/>
    <path class="cls-1" d="M180.1,123.5h-14c-.7,0-1-.3-1.4-1-2.9-6.4-6-12.8-9-19.3-3-6.5-.3-.7-.3-1v-14.9c.2-6.1-3.2-10.7-9.1-12.2-.2,0-.3,0-.7-.2,2.7-6.5,5.3-14.6,8-21.1,0-.3,1.4,1.2,1.5,1.4,1,1.6,1.5,3.5,2.1,5.3.6,1.7,1.4,4.1,2.1,6.1,1.4,4,2.9,8,4.3,12,2.9,8,6,15.8,8.9,23.9,2.9,8,.9,2.4,1.3,3.6s.4,1.2.7,1.8c.3.6.7,1.3.7,1.8.9,2.3,1.6,4.6,2.5,6.9q.9,2.3,1.2,3.5c.3,1.1,1,3.4,1.2,3.4h0Z"/>
    <path class="cls-3" d="M109.9,97.6v-22.2c0-.4,0-1,.3-1.2,4.2-4.1,8.3-8.3,12.7-12.2,6.7-5.9,14.7-8.7,23.8-8.5h6.1c-.2.4-.3.8-.3,1.1-2.7,6.5-5.4,12.9-8,19.4-.3.7-.6.9-1.3.9-5.2,0-9.8,1.9-13.8,5.2-3.9,3.2-7.5,6.7-11.2,10.1-2.4,2.2-4.8,4.4-7.3,6.7-.3.3-.5.4-1,.8h-.2Z"/>
    <path class="cls-3" d="M108.4,97.5c-.3-.2-.4-.3-.6-.3-10.1-6.7-20.3-13.3-30.4-20-.7-.4-1-1-1-1.8v-22.5c.4.3.8.4,1,.6,10.1,6.8,20.2,13.7,30.3,20.5.3.3.8.9.8,1.3v22.2h0Z"/>
    <path class="cls-3" d="M76.4,78.3c2,1.3,3.8,2.5,5.6,3.7,3.9,2.6,7.9,5.1,11.7,7.7.3.3.7.8.7,1.2v33.2c-.3-.3-.7-.6-.9-.9-5.5-5.6-11.1-11.3-16.5-17-.3-.3-.6-1-.6-1.4v-26.6h0Z"/>
    <path class="cls-1" d="M134.8,102.3c.5-1.2.9-2.2,1.3-3.2,2.9-7.1,5.9-14.2,8.7-21.4.4-1,.9-1.1,1.8-.9,5.8,1.8,8.7,7.4,6.4,13-2.9,6.9-8.4,10.7-15.6,12.2-.8.2-1.6.2-2.7.3h0Z"/>
    <g>
      <path class="cls-2" d="M95.2,164.7h-4.8v4h5.3v.7h-6v-9.5h5.8v.7h-5.1v3.5h4.8v.7Z"/>
      <path class="cls-2" d="M97.6,166.8c.3,1.3,1.1,2,2.7,2s2.4-.9,2.4-1.9-.5-1.7-2.6-2.2c-2-.5-2.9-1.2-2.9-2.5s.9-2.4,2.9-2.4,3,1.3,3.1,2.4h-.8c-.2-1-.9-1.7-2.4-1.7s-2.1.6-2.1,1.7.6,1.4,2.4,1.9c2.7.7,3.1,1.7,3.1,2.9s-1,2.6-3.2,2.6-3.2-1.4-3.4-2.7h.8Z"/>
      <path class="cls-2" d="M107.5,160.6h-3.2v-.7h7.1v.7h-3.2v8.8h-.7v-8.8Z"/>
      <path class="cls-2" d="M112.8,159.9h3.1c2.6,0,4.4,1.8,4.4,4.7s-1.8,4.8-4.4,4.8h-3.1v-9.5ZM113.5,168.7h2.3c2.5,0,3.7-1.8,3.7-4.1s-1.1-4-3.7-4h-2.3v8.1Z"/>
      <path class="cls-2" d="M125.3,169.4h0c0-1.2.9-2.5,2.7-3.9,1.5-1.2,1.9-1.6,1.9-2.7s-.5-1.8-1.8-1.8-1.9.6-2.1,1.9h-.7c.2-1.5,1.1-2.5,2.8-2.5s2.6,1.2,2.6,2.4-.6,1.8-2.2,3.2c-1.3,1.1-2.1,1.9-2.4,2.8h5v.7h-5.8Z"/>
      <path class="cls-2" d="M138.1,164.9c0,2-.5,4.7-2.9,4.7s-2.9-2.4-2.9-4.6.6-4.6,2.9-4.6,2.9,2.4,2.9,4.5ZM133.1,164.9c0,1.7.4,4,2.1,4s2.2-2.1,2.2-4-.4-3.9-2.1-3.9-2.2,2-2.2,4Z"/>
      <path class="cls-2" d="M139.5,169.4h0c0-1.2.9-2.5,2.7-3.9,1.5-1.2,1.9-1.6,1.9-2.7s-.5-1.8-1.8-1.8-1.9.6-2.1,1.9h-.7c.2-1.5,1.1-2.5,2.8-2.5s2.6,1.2,2.6,2.4-.6,1.8-2.2,3.2c-1.3,1.1-2.1,1.9-2.4,2.8h5v.7h-5.8Z"/>
      <path class="cls-2" d="M146.6,162.5c.1-1.1.9-2.2,2.6-2.2s2.5,1.1,2.5,2.2-.7,1.7-1.2,1.9h0c.9.3,1.7,1,1.7,2.3s-.9,2.8-2.9,2.8-2.7-1.2-2.9-2.4h.7c.2.9.9,1.7,2.2,1.7s2.1-1,2.1-2.1-.9-2-2.2-2h-.5v-.6h.4c1.4,0,2-.6,2-1.6s-.6-1.6-1.8-1.6-1.7.6-1.9,1.5h-.7Z"/>
    </g>
  </g>
</svg>